<svg width="16" height="15" viewBox="0 0 16 15" fill="none" xmlns="http://www.w3.org/2000/svg">
<path d="M4.60814 15C5.01205 15 5.28743 14.7901 5.78313 14.3431L8.24327 12.1533H12.5577C14.8158 12.1533 16 10.9398 16 8.73175V3.42154C16 1.21351 14.8158 0 12.5577 0H3.44235C1.18418 0 0 1.21351 0 3.42154V8.73175C0 10.9398 1.18418 12.1533 3.44235 12.1533H3.70855V13.969C3.70855 14.5985 4.02984 15 4.60814 15ZM4.9478 13.5036V11.4507C4.9478 11.0036 4.78257 10.8394 4.33276 10.8394H3.44235C1.96442 10.8394 1.32186 10.1369 1.32186 8.73175V3.42154C1.32186 2.02556 1.96442 1.323 3.44235 1.323H12.5577C14.0356 1.323 14.6781 2.02556 14.6781 3.42154V8.73175C14.6781 10.1369 14.0356 10.8394 12.5577 10.8394H8.16983C7.72921 10.8394 7.49972 10.9033 7.20597 11.2135L4.9478 13.5036Z" fill="#4A4A4A"/>
</svg>
